<svg width="14" height="28" viewBox="0 0 14 28" fill="none" xmlns="http://www.w3.org/2000/svg">
<path d="M3.79668 0.783195C3.48488 0.356873 3.02759 0.0805525 2.5254 0.0150188C2.02321 -0.050515 1.51725 0.100107 1.11884 0.433751C0.720435 0.767394 0.462206 1.25673 0.400963 1.7941C0.33972 2.33148 0.48048 2.87288 0.792278 3.2992L8.85379 14.0222L0.493704 24.7252C0.336576 24.927 0.218191 25.1599 0.145331 25.4107C0.07247 25.6616 0.0465649 25.9253 0.0690995 26.1868C0.0916342 26.4484 0.162165 26.7026 0.276654 26.9349C0.391142 27.1672 0.547339 27.3731 0.736296 27.5407C1.07203 27.8384 1.49458 28.0009 1.93059 28C2.20474 28.0005 2.47562 27.9363 2.72397 27.8121C2.97231 27.6878 3.19203 27.5065 3.36748 27.2811L12.6979 15.3002C12.9724 14.9429 13.1224 14.4947 13.1224 14.0322C13.1224 13.5697 12.9724 13.1215 12.6979 12.7642L3.79668 0.783195Z" fill="white"/>
</svg>
