<svg width="0" height="0" class="hidden">
  <symbol xmlns="http://www.w3.org/2000/svg" viewBox="0 0 448 512" id="arrow-left-solid">
    <path d="M9.4 233.4c-12.5 12.5-12.5 32.8 0 45.3l160 160c12.5 12.5 32.8 12.5 45.3 0s12.5-32.8 0-45.3L109.2 288 416 288c17.7 0 32-14.3 32-32s-14.3-32-32-32l-306.7 0L214.6 118.6c12.5-12.5 12.5-32.8 0-45.3s-32.8-12.5-45.3 0l-160 160z"></path>
  </symbol>
  <symbol xmlns="http://www.w3.org/2000/svg" viewBox="0 0 448 512" id="bell-solid">
    <path d="M224 0c-17.7 0-32 14.3-32 32V51.2C119 66 64 130.6 64 208v18.8c0 47-17.3 92.4-48.5 127.6l-7.4 8.3c-8.4 9.4-10.4 22.9-5.3 34.4S19.4 416 32 416H416c12.6 0 24-7.4 29.2-18.9s3.1-25-5.3-34.4l-7.4-8.3C401.3 319.2 384 273.9 384 226.8V208c0-77.4-55-142-128-156.8V32c0-17.7-14.3-32-32-32zm45.3 493.3c12-12 18.7-28.3 18.7-45.3H224 160c0 17 6.7 33.3 18.7 45.3s28.3 18.7 45.3 18.7s33.3-6.7 45.3-18.7z"></path>
  </symbol>
  <symbol version="1.1" id="bell-svgrepo-com" xmlns="http://www.w3.org/2000/svg" xmlns:xlink="http://www.w3.org/1999/xlink" x="0px" y="0px" xml:space="preserve" viewBox="0 0 459.334 459.334">
    <g>
      <g>
        <g>
          <path d="M175.216,404.514c-0.001,0.12-0.009,0.239-0.009,0.359c0,30.078,24.383,54.461,54.461,54.461
				s54.461-24.383,54.461-54.461c0-0.12-0.008-0.239-0.009-0.359H175.216z"></path>
          <path d="M403.549,336.438l-49.015-72.002c0-22.041,0-75.898,0-89.83c0-60.581-43.144-111.079-100.381-122.459V24.485
				C254.152,10.963,243.19,0,229.667,0s-24.485,10.963-24.485,24.485v27.663c-57.237,11.381-100.381,61.879-100.381,122.459
				c0,23.716,0,76.084,0,89.83l-49.015,72.002c-5.163,7.584-5.709,17.401-1.419,25.511c4.29,8.11,12.712,13.182,21.887,13.182
				H383.08c9.175,0,17.597-5.073,21.887-13.182C409.258,353.839,408.711,344.022,403.549,336.438z"></path>
        </g>
      </g>
    </g>
    <g></g>
    <g></g>
    <g></g>
    <g></g>
    <g></g>
    <g></g>
    <g></g>
    <g></g>
    <g></g>
    <g></g>
    <g></g>
    <g></g>
    <g></g>
    <g></g>
    <g></g>
  </symbol>
  <symbol xmlns="http://www.w3.org/2000/svg" viewBox="0 0 384 512" id="building-solid">
    <path d="M48 0C21.5 0 0 21.5 0 48V464c0 26.5 21.5 48 48 48h96V432c0-26.5 21.5-48 48-48s48 21.5 48 48v80h96c26.5 0 48-21.5 48-48V48c0-26.5-21.5-48-48-48H48zM64 240c0-8.8 7.2-16 16-16h32c8.8 0 16 7.2 16 16v32c0 8.8-7.2 16-16 16H80c-8.8 0-16-7.2-16-16V240zm112-16h32c8.8 0 16 7.2 16 16v32c0 8.8-7.2 16-16 16H176c-8.8 0-16-7.2-16-16V240c0-8.8 7.2-16 16-16zm80 16c0-8.8 7.2-16 16-16h32c8.8 0 16 7.2 16 16v32c0 8.8-7.2 16-16 16H272c-8.8 0-16-7.2-16-16V240zM80 96h32c8.8 0 16 7.2 16 16v32c0 8.8-7.2 16-16 16H80c-8.8 0-16-7.2-16-16V112c0-8.8 7.2-16 16-16zm80 16c0-8.8 7.2-16 16-16h32c8.8 0 16 7.2 16 16v32c0 8.8-7.2 16-16 16H176c-8.8 0-16-7.2-16-16V112zM272 96h32c8.8 0 16 7.2 16 16v32c0 8.8-7.2 16-16 16H272c-8.8 0-16-7.2-16-16V112c0-8.8 7.2-16 16-16z"></path>
  </symbol>
  <symbol xmlns="http://www.w3.org/2000/svg" viewBox="-32 0 512 512" id="calendar-alt-svgrepo-com">
    <path d="M148 288h-40c-6.6 0-12-5.4-12-12v-40c0-6.6 5.4-12 12-12h40c6.6 0 12 5.4 12 12v40c0 6.6-5.4 12-12 12zm108-12v-40c0-6.6-5.4-12-12-12h-40c-6.6 0-12 5.4-12 12v40c0 6.6 5.4 12 12 12h40c6.6 0 12-5.4 12-12zm96 0v-40c0-6.6-5.4-12-12-12h-40c-6.6 0-12 5.4-12 12v40c0 6.6 5.4 12 12 12h40c6.6 0 12-5.4 12-12zm-96 96v-40c0-6.6-5.4-12-12-12h-40c-6.6 0-12 5.4-12 12v40c0 6.6 5.4 12 12 12h40c6.6 0 12-5.4 12-12zm-96 0v-40c0-6.6-5.4-12-12-12h-40c-6.6 0-12 5.4-12 12v40c0 6.6 5.4 12 12 12h40c6.6 0 12-5.4 12-12zm192 0v-40c0-6.6-5.4-12-12-12h-40c-6.6 0-12 5.4-12 12v40c0 6.6 5.4 12 12 12h40c6.6 0 12-5.4 12-12zm96-260v352c0 26.5-21.5 48-48 48H48c-26.5 0-48-21.5-48-48V112c0-26.5 21.5-48 48-48h48V12c0-6.6 5.4-12 12-12h40c6.6 0 12 5.4 12 12v52h128V12c0-6.6 5.4-12 12-12h40c6.6 0 12 5.4 12 12v52h48c26.5 0 48 21.5 48 48zm-48 346V160H48v298c0 3.3 2.7 6 6 6h340c3.3 0 6-2.7 6-6z"></path>
  </symbol>
  <symbol xmlns="http://www.w3.org/2000/svg" viewBox="0 0 448 512" id="calendar-check-solid">
    <path d="M128 0c17.7 0 32 14.3 32 32V64H288V32c0-17.7 14.3-32 32-32s32 14.3 32 32V64h48c26.5 0 48 21.5 48 48v48H0V112C0 85.5 21.5 64 48 64H96V32c0-17.7 14.3-32 32-32zM0 192H448V464c0 26.5-21.5 48-48 48H48c-26.5 0-48-21.5-48-48V192zM329 305c9.4-9.4 9.4-24.6 0-33.9s-24.6-9.4-33.9 0l-95 95-47-47c-9.4-9.4-24.6-9.4-33.9 0s-9.4 24.6 0 33.9l64 64c9.4 9.4 24.6 9.4 33.9 0L329 305z"></path>
  </symbol>
  <symbol fill="none" xmlns="http://www.w3.org/2000/svg" viewBox="0 0 14 28" id="chevron">
    <path d="M3.79668 0.783195C3.48488 0.356873 3.02759 0.0805525 2.5254 0.0150188C2.02321 -0.050515 1.51725 0.100107 1.11884 0.433751C0.720435 0.767394 0.462206 1.25673 0.400963 1.7941C0.33972 2.33148 0.48048 2.87288 0.792278 3.2992L8.85379 14.0222L0.493704 24.7252C0.336576 24.927 0.218191 25.1599 0.145331 25.4107C0.07247 25.6616 0.0465649 25.9253 0.0690995 26.1868C0.0916342 26.4484 0.162165 26.7026 0.276654 26.9349C0.391142 27.1672 0.547339 27.3731 0.736296 27.5407C1.07203 27.8384 1.49458 28.0009 1.93059 28C2.20474 28.0005 2.47562 27.9363 2.72397 27.8121C2.97231 27.6878 3.19203 27.5065 3.36748 27.2811L12.6979 15.3002C12.9724 14.9429 13.1224 14.4947 13.1224 14.0322C13.1224 13.5697 12.9724 13.1215 12.6979 12.7642L3.79668 0.783195Z" fill="white"></path>
  </symbol>
  <symbol xmlns="http://www.w3.org/2000/svg" viewBox="0 0 512 512" id="circle-plus-solid">
    <path d="M256 512c141.4 0 256-114.6 256-256S397.4 0 256 0S0 114.6 0 256S114.6 512 256 512zM232 344V280H168c-13.3 0-24-10.7-24-24s10.7-24 24-24h64V168c0-13.3 10.7-24 24-24s24 10.7 24 24v64h64c13.3 0 24 10.7 24 24s-10.7 24-24 24H280v64c0 13.3-10.7 24-24 24s-24-10.7-24-24z"></path>
  </symbol>
  <symbol fill="none" xmlns="http://www.w3.org/2000/svg" viewBox="0 0 24 24" id="clock-svgrepo-com">
    <path d="M12 7V12L15 15M21 12C21 16.9706 16.9706 21 12 21C7.02944 21 3 16.9706 3 12C3 7.02944 7.02944 3 12 3C16.9706 3 21 7.02944 21 12Z" stroke="#001A72" stroke-width="1.5" stroke-linecap="round" stroke-linejoin="round"></path>
  </symbol>
  <symbol xmlns="http://www.w3.org/2000/svg" viewBox="0 0 512 512" id="fingerprint-solid">
    <path d="M48 256C48 141.1 141.1 48 256 48c69.3 0 130.6 33.8 168.5 86c7.8 10.7 22.8 13.1 33.5 5.3s13.1-22.8 5.3-33.5C416.8 41.7 341.3 0 256 0C114.6 0 0 114.6 0 256v8c0 13.3 10.7 24 24 24s24-10.7 24-24v-8zm458.5-52.9c-2.7-13-15.5-21.3-28.4-18.5s-21.3 15.5-18.5 28.4c2.9 13.9 4.5 28.3 4.5 43.1v8c0 13.3 10.7 24 24 24s24-10.7 24-24v-8c0-18.1-1.9-35.8-5.5-52.9zM222.1 128.2c10.8-2.9 22.1-4.4 33.9-4.4c73 0 132.2 59.2 132.2 132.2c0 31.1-1.9 62.4-3.9 86c-1 11.8-2 21.6-2.7 28.4c-.4 3.4-.7 6.1-.9 7.9l-.2 2-.1 .5 0 .1 0 0 0 0c-1.6 13.2 7.7 25.1 20.8 26.8s25.1-7.7 26.8-20.8l-23.8-3c23.8 3 23.8 3 23.8 3l0 0 0 0 0 0 0-.2 .1-.6 .3-2.2c.2-1.9 .5-4.8 .9-8.3c.8-7.2 1.8-17.4 2.8-29.6c2-24.4 4.1-57.1 4.1-90c0-99.5-80.7-180.2-180.2-180.2c-15.9 0-31.4 2.1-46.2 6c-12.8 3.4-20.5 16.5-17.1 29.3s16.5 20.5 29.3 17.1zm-74.5 52.1c7.6-10.9 5-25.8-5.9-33.4s-25.8-5-33.4 5.9C87.9 182 75.8 217.6 75.8 256c0 30.1-3.8 58.6-7.6 79.7c-1.9 10.5-3.8 19.1-5.2 24.9c-.7 2.9-1.3 5.2-1.7 6.7c-.2 .7-.3 1.3-.4 1.6l-.1 .4 0 .1 0 0c-3.6 12.7 3.7 26 16.5 29.7s26-3.7 29.7-16.5L83.8 376c23.1 6.6 23.1 6.6 23.1 6.6l0 0 0 0 0-.1 0-.2 .2-.6c.1-.5 .3-1.2 .6-2.1c.5-1.8 1.2-4.4 1.9-7.7c1.6-6.6 3.7-16.1 5.8-27.6c4.2-22.9 8.4-54.4 8.4-88.3c0-28.2 8.8-54.3 23.8-75.7zM256 200c30.9 0 56 25.1 56 56c0 47.1-2.7 86.3-5.5 113.6c-1.4 13.7-2.7 24.3-3.7 31.6c-.5 3.6-.9 6.3-1.2 8.1c-.1 .9-.2 1.6-.3 2l-.1 .5 0 .1 0 0 0 0 0 0c-2.3 13.1 6.5 25.5 19.5 27.8s25.5-6.4 27.8-19.5L324.8 416c23.6 4.1 23.6 4.1 23.6 4.1l0 0 0 0 0-.1 0-.2 .1-.7c.1-.6 .2-1.4 .4-2.4c.3-2.1 .8-5.1 1.3-9c1.1-7.8 2.5-19.1 4-33.4c2.9-28.7 5.7-69.5 5.7-118.4c0-57.4-46.6-104-104-104s-104 46.6-104 104c0 46.7-3.9 83.4-7.7 108.4c-1.9 12.5-3.8 21.9-5.2 28.2c-.7 3.1-1.3 5.5-1.6 6.9c-.2 .7-.3 1.3-.4 1.6l-.1 .3c-3.6 12.7 3.7 26 16.5 29.7s26-3.7 29.7-16.5L160 408c23.1 6.6 23.1 6.6 23.1 6.6l0 0 0 0 0-.1 .1-.2 .2-.7c.1-.5 .3-1.3 .6-2.3c.5-2 1.2-4.8 2-8.4c1.6-7.2 3.7-17.8 5.8-31.3c3-19.2 5.9-44.6 7.3-75.3c.6-12.6 .9-26 .9-40.3c0-30.9 25.1-56 56-56zm24 56c0-13.3-10.7-24-24-24s-24 10.7-24 24c0 45.4-2.6 83.4-6.3 114.5L202 478.3l0 0c-5.3 12.1 .1 26.2 12.2 31.6c12.1 5.4 26.3-.1 31.7-12.2L224 488c21.9 9.7 21.9 9.7 21.9 9.7l0 0 0 0 0-.1 .1-.3 .4-.9c.3-.8 .7-1.8 1.2-3.1c1-2.7 2.4-6.5 4-11.5c3.3-10.1 7.5-24.9 11.7-44.7C271.8 397.3 280 337.6 280 256zM225.7 370.5s0 0 0 0L256 232 225.7 370.5zm0 0c-2.7 22.5-5.9 41.3-9.2 56.6c-3.8 18.2-7.6 31.3-10.3 39.8c-1.4 4.2-2.5 7.3-3.2 9.2c-.4 .9-.6 1.6-.8 2l-.1 .4 23.6-107.9z"></path>
  </symbol>
  <symbol xmlns="http://www.w3.org/2000/svg" viewBox="0 0 640 512" id="mug-saucer-solid">
    <path d="M96 64c0-17.7 14.3-32 32-32H448h64c70.7 0 128 57.3 128 128s-57.3 128-128 128H480c0 53-43 96-96 96H192c-53 0-96-43-96-96V64zM480 224h32c35.3 0 64-28.7 64-64s-28.7-64-64-64H480V224zM32 416H544c17.7 0 32 14.3 32 32s-14.3 32-32 32H32c-17.7 0-32-14.3-32-32s14.3-32 32-32z"></path>
  </symbol>
  <symbol xmlns="http://www.w3.org/2000/svg" viewBox="0 0 512 512" id="out">
    <path d="M497 273L329 441c-15 15-41 4.5-41-17v-96H152c-13.3 0-24-10.7-24-24v-96c0-13.3 10.7-24 24-24h136V88c0-21.4 25.9-32 41-17l168 168c9.3 9.4 9.3 24.6 0 34zM192 436v-40c0-6.6-5.4-12-12-12H96c-17.7 0-32-14.3-32-32V160c0-17.7 14.3-32 32-32h84c6.6 0 12-5.4 12-12V76c0-6.6-5.4-12-12-12H96c-53 0-96 43-96 96v192c0 53 43 96 96 96h84c6.6 0 12-5.4 12-12z"></path>
  </symbol>
  <symbol xmlns="http://www.w3.org/2000/svg" viewBox="0 0 576 512" id="rectangle-list-regular">
    <path d="M128 192C110.3 192 96 177.7 96 160C96 142.3 110.3 128 128 128C145.7 128 160 142.3 160 160C160 177.7 145.7 192 128 192zM200 160C200 146.7 210.7 136 224 136H448C461.3 136 472 146.7 472 160C472 173.3 461.3 184 448 184H224C210.7 184 200 173.3 200 160zM200 256C200 242.7 210.7 232 224 232H448C461.3 232 472 242.7 472 256C472 269.3 461.3 280 448 280H224C210.7 280 200 269.3 200 256zM200 352C200 338.7 210.7 328 224 328H448C461.3 328 472 338.7 472 352C472 365.3 461.3 376 448 376H224C210.7 376 200 365.3 200 352zM128 224C145.7 224 160 238.3 160 256C160 273.7 145.7 288 128 288C110.3 288 96 273.7 96 256C96 238.3 110.3 224 128 224zM128 384C110.3 384 96 369.7 96 352C96 334.3 110.3 320 128 320C145.7 320 160 334.3 160 352C160 369.7 145.7 384 128 384zM0 96C0 60.65 28.65 32 64 32H512C547.3 32 576 60.65 576 96V416C576 451.3 547.3 480 512 480H64C28.65 480 0 451.3 0 416V96zM48 96V416C48 424.8 55.16 432 64 432H512C520.8 432 528 424.8 528 416V96C528 87.16 520.8 80 512 80H64C55.16 80 48 87.16 48 96z"></path>
  </symbol>
  <symbol xmlns="http://www.w3.org/2000/svg" viewBox="0 0 512 512" id="right-to-bracket-solid">
    <path d="M352 96h64c17.7 0 32 14.3 32 32V384c0 17.7-14.3 32-32 32H352c-17.7 0-32 14.3-32 32s14.3 32 32 32h64c53 0 96-43 96-96V128c0-53-43-96-96-96H352c-17.7 0-32 14.3-32 32s14.3 32 32 32zm-7.5 177.4c4.8-4.5 7.5-10.8 7.5-17.4s-2.7-12.9-7.5-17.4l-144-136c-7-6.6-17.2-8.4-26-4.6s-14.5 12.5-14.5 22v72H32c-17.7 0-32 14.3-32 32v64c0 17.7 14.3 32 32 32H160v72c0 9.6 5.7 18.2 14.5 22s19 2 26-4.6l144-136z"></path>
  </symbol>
  <symbol xmlns="http://www.w3.org/2000/svg" viewBox="0 0 448 512" id="user-regular">
    <path d="M272 304h-96C78.8 304 0 382.8 0 480c0 17.67 14.33 32 32 32h384c17.67 0 32-14.33 32-32C448 382.8 369.2 304 272 304zM48.99 464C56.89 400.9 110.8 352 176 352h96c65.16 0 119.1 48.95 127 112H48.99zM224 256c70.69 0 128-57.31 128-128c0-70.69-57.31-128-128-128S96 57.31 96 128C96 198.7 153.3 256 224 256zM224 48c44.11 0 80 35.89 80 80c0 44.11-35.89 80-80 80S144 172.1 144 128C144 83.89 179.9 48 224 48z"></path>
  </symbol>
  <symbol xmlns="http://www.w3.org/2000/svg" viewBox="0 0 512 512" id="window-restore-solid">
    <path d="M432 64H208c-8.8 0-16 7.2-16 16V96H128V80c0-44.2 35.8-80 80-80H432c44.2 0 80 35.8 80 80V304c0 44.2-35.8 80-80 80H416V320h16c8.8 0 16-7.2 16-16V80c0-8.8-7.2-16-16-16zM0 192c0-35.3 28.7-64 64-64H320c35.3 0 64 28.7 64 64V448c0 35.3-28.7 64-64 64H64c-35.3 0-64-28.7-64-64V192zm64 32c0 17.7 14.3 32 32 32H288c17.7 0 32-14.3 32-32s-14.3-32-32-32H96c-17.7 0-32 14.3-32 32z"></path>
  </symbol>
</svg>